<?xml version="1.0" encoding="utf-8"?>
<!-- Generator: Adobe Illustrator 26.2.1, SVG Export Plug-In . SVG Version: 6.00 Build 0)  -->
<svg version="1.1" id="图层_1" xmlns="http://www.w3.org/2000/svg" xmlns:xlink="http://www.w3.org/1999/xlink" x="0px" y="0px"
	 viewBox="0 0 1000 280" style="enable-background:new 0 0 1000 280;" xml:space="preserve">
<style type="text/css">
	.st0{fill:#FFFFFF;}
</style>
<g>
	<path class="st0" d="M103.4,193.1l15.7,28.6c1.3,2.4,4.8,2.4,6.2,0l15.7-28.6c0.8-1.4,0.5-3.1-0.7-4.2l-15.7-15
		c-1.4-1.3-3.5-1.3-4.9,0l-15.7,15C102.9,189.9,102.7,191.7,103.4,193.1z"/>
	<path class="st0" d="M194.9,183.3L194.9,183.3L126.7,59c-1.9-3.5-6.9-3.5-8.8,0L49.6,183.3c-1.8,3.3,0.6,7.4,4.4,7.4h26.6
		c0.9,0,1.8-0.4,2.4-1l36.7-35.1c1.4-1.3,3.5-1.3,4.9,0l36.7,35.1c0.7,0.6,1.5,1,2.4,1h26.6C194.3,190.7,196.8,186.6,194.9,183.3z"
		/>
</g>
<g>
	<polygon class="st0" points="543.1,85.4 460.2,85.4 460.2,110 489.7,110 489.7,195.4 514.1,195.4 514.1,110 543.1,110 	"/>
	<polygon class="st0" points="350.3,85.5 372.6,85.5 424.1,153.2 424.1,85.5 448,85.5 448,195.4 427.4,195.4 374.2,125.6 
		374.2,195.4 350.3,195.4 	"/>
	<path class="st0" d="M272.9,86.3l-41.5,108.1h26.4l5.5-15.9h43l5.5,15.9H338L296.6,86.3H272.9z M269.1,156.3l15.8-42.9l15.6,42.9
		H269.1z"/>
	<polygon class="st0" points="891.9,85.4 891.9,195.4 951,195.4 951,182.9 904.1,182.9 904.1,85.4 	"/>
	<path class="st0" d="M628.2,105.8c-1.7-4.1-4.2-7.6-7.2-10.7c-3-3-6.6-5.4-10.7-7.2c-4-1.7-8.4-2.6-13-2.6h-29.2l0,0H556v110h12.3
		v-37.1v-6h29.2l0,0c4.6,0,9-0.9,13-2.6c4.1-1.7,7.6-4.2,10.7-7.2c3-3,5.4-6.6,7.2-10.7c1.7-4,2.6-8.4,2.6-13
		C630.8,114.2,629.9,109.9,628.2,105.8z M616.8,127L616.8,127c-1.1,2.5-2.6,4.8-4.5,6.7c-1.9,1.9-4.2,3.4-6.7,4.5
		c-2.6,1.1-5.3,1.6-8.2,1.6h-29.2v-3.4V97.9h29.2c2.8,0,5.6,0.5,8.2,1.6c2.5,1.1,4.8,2.6,6.7,4.5c1.9,1.9,3.4,4.2,4.5,6.7
		c1.1,2.6,1.7,5.3,1.7,8.2C618.5,121.7,617.9,124.4,616.8,127z"/>
	<path class="st0" d="M794.1,106.6c3.3-2.8,7.1-5.1,11.2-6.9c10.6-4.5,23.2-4.5,33.7,0c3.7,1.6,7.1,3.6,10.2,6l8.3-8.3
		c-4.1-3.5-8.8-6.3-14-8.5c-6.6-2.8-13.8-4.3-21.4-4.3c-7.6,0-14.8,1.4-21.4,4.3c-5.6,2.4-10.6,5.6-15,9.5L794.1,106.6z"/>
	<path class="st0" d="M862.2,122.7c2.3,5.3,3.4,11,3.4,16.8c0,5.9-1.1,11.5-3.4,16.8l0,0c-1.8,4.2-4.1,7.9-7,11.3l8.3,8.3
		c3.9-4.4,7.1-9.4,9.5-15c2.8-6.6,4.3-13.8,4.3-21.4c0-7.6-1.4-14.8-4.3-21.4c-2.4-5.5-5.5-10.5-9.4-14.9l-8.3,8.3
		C858.1,114.9,860.5,118.6,862.2,122.7z"/>
	<path class="st0" d="M656.7,156.4c-2.3-5.3-3.4-10.9-3.4-16.8c0-5.9,1.2-11.6,3.4-16.8c1.8-4.1,4.1-7.9,6.9-11.2l-8.3-8.3
		c-3.8,4.4-7,9.4-9.4,14.9c-2.8,6.6-4.3,13.8-4.3,21.4c0,7.6,1.4,14.8,4.3,21.4c2.4,5.6,5.6,10.6,9.5,15.1l8.3-8.3
		C660.9,164.4,658.5,160.6,656.7,156.4z"/>
	<path class="st0" d="M669.7,105.7c3.1-2.4,6.5-4.5,10.2-6c10.6-4.5,23.2-4.5,33.7,0c4.2,1.8,7.9,4.1,11.3,6.9l8.3-8.3
		c-4.4-3.9-9.5-7.1-15.1-9.5c-6.6-2.8-13.8-4.3-21.4-4.3c-7.6,0-14.8,1.4-21.4,4.3c-5.1,2.2-9.8,5.1-14,8.6L669.7,105.7z"/>
	<path class="st0" d="M730.6,112.6c6.8,8.3,21.4,27,21.4,27s-14.8,18.8-21.5,27l8.2,8.2c6.5-7.9,20.7-25.8,20.7-25.8
		s14.1,17.8,20.6,25.8l8.2-8.2c-6.7-8.2-21.4-26.9-21.4-26.9s14.7-18.7,21.4-26.9l-8.3-8.3c-6.6,8-20.6,25.7-20.6,25.7
		s-14.2-17.8-20.7-25.7L730.6,112.6z"/>
	<path class="st0" d="M724.8,172.7c-3.3,2.8-7,5.1-11.1,6.8c-5.3,2.2-11,3.4-16.9,3.4c-5.9,0-11.6-1.1-16.9-3.4
		c-3.7-1.6-7.1-3.6-10.2-6l-8.3,8.3c4.1,3.5,8.8,6.3,14,8.5c6.6,2.8,13.8,4.3,21.4,4.3c7.6,0,14.8-1.4,21.4-4.3
		c5.5-2.4,10.5-5.5,14.9-9.4L724.8,172.7z"/>
	<path class="st0" d="M849.2,173.5c-3.1,2.4-6.4,4.4-10.1,6c-5.3,2.2-11,3.4-16.9,3.4s-11.6-1.1-16.9-3.4c-4.1-1.7-7.8-4-11.1-6.8
		l-8.3,8.3c4.4,3.8,9.4,7,14.9,9.4c6.6,2.8,13.8,4.3,21.4,4.3c7.6,0,14.8-1.4,21.4-4.3c5.1-2.2,9.8-5.1,13.9-8.5L849.2,173.5z"/>
</g>
</svg>
