<svg xmlns="http://www.w3.org/2000/svg" width="100%" viewBox="0 0 713 210" fill="none" class="u-svg">
<path d="M3.92462 106.509C1.75634 106.509 0 106.746 0 107.039V120.594C0 121.374 4.68464 122.007 10.4646 122.007H708.867C711.035 122.007 712.792 121.77 712.792 121.477V107.923C712.792 107.142 708.107 106.509 702.327 106.509H3.92462Z" fill="currentColor" class="path-5">
</path>
<path d="M9.4028 0.10495C9.08812 0.10495 8.77344 0.367326 8.77344 0.734652V76.0365C8.77344 76.3514 9.03567 76.6662 9.4028 76.6662H23.5634C23.8781 76.6662 24.1928 76.4038 24.1928 76.0365V23.5089H26.7102L49.2098 76.2464C49.2098 76.2464 49.5245 76.6137 49.7868 76.6137H62.9509C62.9509 76.6137 63.4229 76.4563 63.5278 76.2464L86.0274 23.5089H88.5448V76.0365C88.5448 76.3514 88.8071 76.6662 89.1742 76.6662H103.335C103.65 76.6662 103.964 76.4038 103.964 76.0365V0.734652C103.964 0.419801 103.702 0.10495 103.335 0.10495H81.045C81.045 0.10495 80.573 0.262376 80.4681 0.472276L57.6538 53.9969H55.1363L32.2171 0.472276C32.2171 0.472276 31.9024 0.10495 31.6402 0.10495H9.4028ZM170.099 0.472276C170.099 0.472276 169.785 0.10495 169.523 0.10495H149.435C149.435 0.10495 148.963 0.262376 148.859 0.472276L117.548 76.1939C117.548 76.1939 117.6 76.6137 117.81 76.6137H133.387C133.387 76.6137 133.859 76.4563 133.964 76.2464L140.205 60.6613H178.648L184.889 76.2464C184.889 76.2464 185.204 76.6137 185.466 76.6137H200.938C200.938 76.6137 201.305 76.4038 201.2 76.1939L170.099 0.472276ZM145.817 46.9128L158.246 15.9525H160.764L173.194 46.9128H145.817ZM215.676 0.10495C215.361 0.10495 215.046 0.367326 215.046 0.734652V76.0365C215.046 76.3514 215.308 76.6662 215.676 76.6662H229.836C230.151 76.6662 230.466 76.4038 230.466 76.0365L230.151 36.4178V14.6406C230.151 14.6406 230.361 14.1683 230.623 14.1683H254.801C257.108 14.1683 259.154 14.5881 260.885 15.4802C262.615 16.3722 263.979 17.6841 264.871 19.4158C265.867 21.095 266.392 23.0366 266.392 25.1881C266.392 27.3396 265.867 29.4386 264.871 31.1178C263.927 32.797 262.615 34.1089 260.885 35.0534C259.154 35.9455 257.108 36.3653 254.801 36.3653H233.875C233.875 36.3653 233.455 36.6801 233.612 36.8376L264.136 76.3514C264.136 76.3514 264.451 76.6137 264.608 76.6137H281.077C281.077 76.6137 281.496 76.2989 281.286 76.089L259.678 49.9039C263.14 49.589 266.392 48.6445 269.433 46.9128C273.21 44.8138 276.147 41.9277 278.297 38.2544C280.552 34.5287 281.654 30.2782 281.654 25.4505C281.654 20.6227 280.552 15.9524 278.297 12.1218C276.042 8.29108 272.895 5.24752 268.857 3.14851C264.871 1.0495 260.36 0 255.325 0H215.623L215.676 0.10495ZM344.537 0.472276C344.537 0.472276 344.222 0.10495 343.96 0.10495H323.873C323.873 0.10495 323.401 0.262376 323.296 0.472276L291.986 76.1939C291.986 76.1939 292.038 76.6137 292.248 76.6137H307.824C307.824 76.6137 308.296 76.4563 308.401 76.2464L314.643 60.6613H353.086L359.327 76.2464C359.327 76.2464 359.642 76.6137 359.904 76.6137H375.376C375.376 76.6137 375.743 76.4038 375.638 76.1939L344.537 0.472276ZM320.254 46.9128L332.684 15.9525H335.149L347.579 46.9128H320.202H320.254Z" fill="currentColor">
</path>
<path d="M100.533 154.854C105.695 154.854 110.452 155.992 114.805 158.27C119.207 160.547 122.699 163.786 125.28 167.986C127.861 172.136 129.151 176.868 129.151 182.182C129.151 187.495 127.861 192.252 125.28 196.452C122.699 200.602 119.207 203.815 114.805 206.093C110.452 208.37 105.695 209.509 100.533 209.509C95.3714 209.509 90.5893 208.37 86.1865 206.093C81.8343 203.815 78.3671 200.602 75.7861 196.452C73.2054 192.252 71.9151 187.495 71.915 182.182C71.915 176.868 73.2053 172.136 75.7861 167.986C78.3671 163.786 81.8343 160.547 86.1865 158.27C90.5892 155.992 95.3714 154.854 100.533 154.854ZM165.59 186.735C165.59 189.974 166.349 192.859 167.867 195.39C169.385 197.92 171.436 199.894 174.017 201.311C176.648 202.727 179.558 203.437 182.746 203.437C185.934 203.436 188.819 202.727 191.399 201.311C194.031 199.894 196.106 197.92 197.624 195.39C199.142 192.859 199.901 189.974 199.901 186.735V155.612H206.354V186.735C206.354 191.189 205.316 195.137 203.241 198.578C201.166 202.019 198.332 204.701 194.739 206.624C191.146 208.547 187.149 209.509 182.746 209.509C178.343 209.509 174.345 208.547 170.752 206.624C167.159 204.701 164.325 202.019 162.25 198.578C160.175 195.137 159.138 191.189 159.138 186.735V155.612H165.59V186.735ZM602.031 154.854C607.193 154.854 611.951 155.992 616.303 158.27C620.705 160.547 624.197 163.786 626.778 167.986C629.359 172.136 630.649 176.868 630.649 182.182C630.649 187.495 629.359 192.252 626.778 196.452C624.197 200.602 620.705 203.815 616.303 206.093C611.951 208.37 607.193 209.509 602.031 209.509C596.869 209.509 592.087 208.37 587.685 206.093C583.332 203.815 579.865 200.602 577.284 196.452C574.703 192.252 573.413 187.495 573.413 182.182C573.413 176.868 574.703 172.136 577.284 167.986C579.865 163.786 583.332 160.547 587.685 158.27C592.087 155.992 596.869 154.854 602.031 154.854ZM46.5469 161.686H15.1953V178.993H44.8008V185.065H15.1953V208.75H8.74316V155.612H46.5469V161.686ZM277.938 201.387H279.684V155.612H286.136V208.75H275.508L247.193 162.976H245.447V208.75H238.995V155.612H249.623L277.938 201.387ZM339.162 155.612C344.729 155.612 349.739 156.751 354.192 159.028C358.646 161.306 362.112 164.469 364.592 168.518C367.122 172.516 368.388 177.07 368.388 182.182C368.388 187.293 367.122 191.872 364.592 195.921C362.112 199.919 358.646 203.057 354.192 205.334C349.739 207.611 344.729 208.75 339.162 208.75H319.502V155.612H339.162ZM446.381 208.75H439.397L433.553 195.313H403.567L397.723 208.75H390.739L413.968 155.612H423.152L446.381 208.75ZM510.496 161.686H490.38V208.75H483.928V161.686H463.812V155.612H510.496V161.686ZM542.714 208.75H536.262V155.612H542.714V208.75ZM700.337 201.387H702.083V155.612H708.535V208.75H697.908L669.594 162.976H667.848V208.75H661.396V155.612H672.022L700.337 201.387ZM100.533 160.927C96.4847 160.927 92.7647 161.812 89.374 163.583C86.0341 165.354 83.3524 167.86 81.3281 171.099C79.3545 174.337 78.3672 178.032 78.3672 182.182C78.3672 186.331 79.3545 190.026 81.3281 193.265C83.3523 196.503 86.0343 199.008 89.374 200.779C92.7647 202.551 96.4847 203.437 100.533 203.437C104.582 203.437 108.276 202.551 111.616 200.779C115.007 199.008 117.689 196.503 119.663 193.265C121.687 190.026 122.699 186.331 122.699 182.182C122.699 178.032 121.687 174.337 119.663 171.099C117.689 167.86 115.007 165.354 111.616 163.583C108.276 161.812 104.582 160.927 100.533 160.927ZM602.031 160.927C597.983 160.927 594.263 161.812 590.872 163.583C587.532 165.354 584.85 167.86 582.826 171.099C580.853 174.337 579.865 178.032 579.865 182.182C579.865 186.331 580.853 190.026 582.826 193.265C584.85 196.503 587.532 199.008 590.872 200.779C594.263 202.551 597.983 203.437 602.031 203.437C606.08 203.437 609.774 202.551 613.114 200.779C616.505 199.008 619.188 196.503 621.161 193.265C623.185 190.026 624.197 186.331 624.197 182.182C624.197 178.032 623.185 174.337 621.161 171.099C619.187 167.86 616.505 165.354 613.114 163.583C609.774 161.812 606.08 160.927 602.031 160.927ZM325.954 202.677H339.162C343.413 202.677 347.259 201.816 350.7 200.096C354.192 198.375 356.926 195.972 358.899 192.885C360.924 189.747 361.935 186.179 361.936 182.182C361.936 178.184 360.924 174.641 358.899 171.554C356.926 168.416 354.192 165.987 350.7 164.267C347.259 162.546 343.413 161.686 339.162 161.686H325.954V202.677ZM406.148 189.241H430.972L419.357 162.444H417.763L406.148 189.241Z" fill="currentColor">
</path>
</svg>
